# xmcd
#
# Track frame offsets:
# 225
# 12744
# 29882
# 38272
# 48384
# 61801
# 74930
# 89481
# 97987
# 110213
# 120303
# 137359
# 146838
# 161317
# 173014
# 184240
# 193610
# 204975
# 218964
# 230514
# 243703
# 255275
# 270915
#
# Disc length: 3769 seconds
#
#
# Revision: 0
# Processed by: cddbd v1.5.1PL0 Copyright (c) Steve Scherf et al.
# Submitted via: FreeRIP 2.93 
#
DISCID=4d0eb617
DTITLE=Rychtari - Rychtari z Chebu
DYEAR=1900
DGENRE=Country
TTITLE0=Namornik
TTITLE1=Faraon
TTITLE2=Mandlove oci
TTITLE3=Mala Clay
TTITLE4=Odchazim
TTITLE5=Pisen rodne zemi
TTITLE6=Mir v udoli
TTITLE7=Vozicku ke mne let
TTITLE8=Maly bracha
TTITLE9=Navrat
TTITLE10=Lod jmenem Batavia
TTITLE11=Jinak to mozne uz neni
TTITLE12=Dar lesa
TTITLE13=Hvezda
TTITLE14=Pojdte vsichni ven
TTITLE15=Dal, dal, dal
TTITLE16=Rano
TTITLE17=Laska
TTITLE18=Pojd k nam
TTITLE19=Leto
TTITLE20=Jarni den
TTITLE21=Udoli strachu
TTITLE22=Song lineho tulaka
EXTD=
EXTT0=Hules
EXTT1=
EXTT2=
EXTT3=
EXTT4=
EXTT5=
EXTT6=
EXTT7=
EXTT8=
EXTT9=
EXTT10=
EXTT11=
EXTT12=
EXTT13=
EXTT14=
EXTT15=
EXTT16=
EXTT17=
EXTT18=
EXTT19=
EXTT20=
EXTT21=
EXTT22=
PLAYORDER=
